<?xml version="1.0" encoding="iso-8859-1"?>
<!-- Generator: Adobe Illustrator 19.0.0, SVG Export Plug-In . SVG Version: 6.00 Build 0)  -->
<svg version="1.1" id="Capa_1" xmlns="http://www.w3.org/2000/svg" xmlns:xlink="http://www.w3.org/1999/xlink" x="0px" y="0px"
	 viewBox="0 0 512.001 512.001" style="enable-background:new 0 0 512.001 512.001;" xml:space="preserve">
<g>
	<path style="fill:#3BBC56;" d="M275.604,152.513c-0.005,0.001-0.009,0.001-0.014,0.001
		C275.594,152.514,275.6,152.514,275.604,152.513z"/>
	<path style="fill:#3BBC56;" d="M409.286,85.555c-65.71-6.757-107.554,24.904-128.612,47.563c1.1,6.134,1.905,12.371,2.353,18.699
		c12.49-0.934,24.927-0.667,37.426,0.828c24.775-37.199,62.969-51.937,89.342-57.774C415.014,93.716,414.603,86.101,409.286,85.555z
		"/>
</g>
<path style="fill:#30AA44;" d="M385.876,84.727c-52.383,1.808-86.762,28.549-105.201,48.391c1.101,6.134,1.905,12.371,2.353,18.699
	c3.169-0.237,6.334-0.395,9.497-0.477C307.603,127.373,336.014,96.424,385.876,84.727z"/>
<g>
	<path style="fill:#3BBC56;" d="M228.748,151.803c0.486-6.364,0.855-13.175,1.035-20.324
		c-21.525-22.511-62.926-52.519-127.068-45.924c-5.317,0.547-5.728,8.161-0.509,9.316c26.373,5.837,64.568,20.575,89.343,57.774
		c12.756-1.526,25.068-1.734,37.205-0.841C228.751,151.803,228.749,151.803,228.748,151.803z"/>
	<path style="fill:#3BBC56;" d="M236.304,152.504c-0.019-0.002-0.038-0.003-0.057-0.005
		C236.266,152.501,236.285,152.502,236.304,152.504z"/>
</g>
<path style="fill:#30AA44;" d="M133.603,86.702c-1.095-0.341-1.89-0.966-2.437-1.723c-8.934-0.592-18.414-0.457-28.451,0.576
	c-5.316,0.547-5.728,8.161-0.509,9.316c26.373,5.837,64.568,20.575,89.343,57.774c8.83-1.056,17.443-1.467,25.936-1.333
	C195.894,112.5,159.282,94.707,133.603,86.702z"/>
<path style="fill:#3BBC56;" d="M227.715,151.803c16.324,1.202,24.174,4.357,41.56,1.69c4.867-0.747,9.799-1.304,14.785-1.677
	c-4.681-66.065-47.545-122.439-73.234-150.654c-2.696-2.961-7.466,0.257-5.71,3.855C229.231,54.438,230.769,111.873,227.715,151.803
	z"/>
<path style="fill:#30AA44;" d="M248.166,154.105c2.257-34.081,1.221-79.473-12.474-122.381
	c-8.829-12.187-17.545-22.521-24.866-30.562c-2.696-2.961-7.466,0.257-5.71,3.855c24.115,49.42,25.653,106.855,22.598,146.785
	C235.908,152.406,241.966,153.501,248.166,154.105z"/>
<path style="fill:#EA473B;" d="M269.275,152.461c-21.471,3.294-27.426-2.221-55.779-2.221c-102.814,0-186.162,80.983-186.162,180.88
	s83.349,180.881,186.162,180.881c9.946,0,19.709-0.76,29.232-2.221c8.805-1.351,17.741-1.351,26.546,0
	c9.523,1.461,19.285,2.221,29.231,2.221c102.815,0,186.162-80.983,186.162-180.88C484.667,220.024,382.512,135.09,269.275,152.461z"
	/>
<path style="fill:#DD332F;" d="M47.971,331.12c0-96.571,77.891-175.459,175.959-180.607c-3.129-0.169-6.567-0.274-10.433-0.274
	c-102.814,0-186.161,80.983-186.161,180.88c-0.001,99.899,83.347,180.882,186.16,180.882c3.466,0,6.908-0.098,10.327-0.28
	C125.805,506.522,47.971,427.656,47.971,331.12z"/>
<g>
</g>
<g>
</g>
<g>
</g>
<g>
</g>
<g>
</g>
<g>
</g>
<g>
</g>
<g>
</g>
<g>
</g>
<g>
</g>
<g>
</g>
<g>
</g>
<g>
</g>
<g>
</g>
<g>
</g>
</svg>
